<?xml version="1.0" encoding="utf-8"?>
<!-- Generator: Adobe Illustrator 26.1.0, SVG Export Plug-In . SVG Version: 6.00 Build 0)  -->
<svg version="1.1" id="Layer_1" xmlns="http://www.w3.org/2000/svg" xmlns:xlink="http://www.w3.org/1999/xlink" x="0px" y="0px"
	 viewBox="0 0 566.9 566.9" style="enable-background:new 0 0 566.9 566.9;" xml:space="preserve">
<style type="text/css">
	.st0{fill:#119DD8;}
</style>
<g>
	<g>
		<path class="st0" d="M111.6,460.8h0.3c3.1-6.8,8.9-8.7,16.9-8.7c7,0,15,2.1,19.9,11.1c4.6-8.5,12.2-12.4,23.6-12.4
			c17.3,0,30.7,10.5,30.7,26.1v43.4l-17.5-0.1v-32.5c0.2-13-3.2-18.2-13.4-18.2c-11.2,0-14.6,4.9-14.7,18.3v32.5l-17.5-0.3v-32.5
			c0.1-13.4-3.9-18.5-14.6-18.7c-10.4-0.2-13.7,9.4-13.6,18.9v32.5l-17.2-0.1v-68.1l17.2,0.1V460.8z"/>
		<path class="st0" d="M245.5,519.2l-17.4-0.1l-0.1-70.1l17.4,0.1L245.5,519.2z"/>
		<path class="st0" d="M311.9,465.6c-3.7-2-11.1-2.4-15.3-2.4c-2.8,0-9.4,1.9-9.2,5.4c0.3,5.7,8.4,7.6,11.7,8.2
			c7.4,1.5,17.6,7.6,17.6,20.2c0,16.4-12.7,23.6-28.5,23.6c-9.7,0-9.5-0.8-18.8-1.9l0.1-16.4c5.7,2.2,13.3,2.8,19.3,2.6
			c6.1-0.2,9.7-2.7,9.7-6.4c0-5.3-8.6-7.3-16.1-9.5c-5.1-1.5-12.7-9.1-13.3-17.9c-1-15.2,10.3-22.6,25.1-22.6
			c7.7,0,10.6-0.7,17.7,2.5L311.9,465.6z"/>
		<path class="st0" d="M387.4,469.5c-3.6-2.7-7.7-3.8-12.3-3.8c-14.7,0-21.9,8.9-21.9,18.4c0,9.8,7.2,18.8,22.3,18.7
			c4.2,0,8.8-1.2,11.9-4.1v17.9c-5.3,2.7-11.2,3.9-17,3.9c-20.2,0-37.1-15-37.1-35.6c0-21.9,16.7-37.1,38.1-37.1
			c5.6,0,11.2,1.3,15.9,4V469.5z"/>
		<path class="st0" d="M479,484.2c0,23.1-17.6,36.3-36.9,36.3c-18.8,0-36.8-13.1-36.8-36.3s19.1-36.3,36.8-36.3
			C460,447.8,479,460.9,479,484.2z M424,484.2c0,8.6,5.4,18.5,18.1,18.5c12.8,0,18.3-9.8,18.3-18.5c0-8.4-5.2-18.1-18.3-18.1
			C430.7,466,424,475.8,424,484.2z"/>
	</g>
</g>
<path class="st0" d="M103,340.9c-0.4-4-4.1-7.1-8.6-7.1c-4.5,0-8.2,3.1-8.6,7.1h0v32.2h0c0,0.1,0,0.2,0,0.3c0,4.3,3.9,7.8,8.7,7.8
	c4.8,0,8.7-3.5,8.7-7.8c0-0.1,0-0.2,0-0.3h0L103,340.9L103,340.9z"/>
<path class="st0" d="M150.9,306.5c-0.4-4-4.1-7.1-8.6-7.1c-4.5,0-8.2,3.1-8.6,7.1h0v90.2h0c0,0.1,0,0.2,0,0.3c0,4.3,3.9,7.8,8.7,7.8
	c4.8,0,8.7-3.5,8.7-7.8c0-0.1,0-0.2,0-0.3h0L150.9,306.5L150.9,306.5z"/>
<path class="st0" d="M198.9,306.5c-0.4-4-4.1-7.1-8.6-7.1c-4.5,0-8.2,3.1-8.6,7.1h0v90.2h0c0,0.1,0,0.2,0,0.3c0,4.3,3.9,7.8,8.7,7.8
	c4.8,0,8.7-3.5,8.7-7.8c0-0.1,0-0.2,0-0.3h0L198.9,306.5L198.9,306.5z"/>
<path class="st0" d="M247.3,69.9c-0.4-4-4.1-7.1-8.6-7.1c-4.5,0-8.2,3.1-8.6,7.1h0v304.2h0c0,0.1,0,0.2,0,0.3c0,4.3,3.9,7.8,8.7,7.8
	c4.8,0,8.7-3.5,8.7-7.8c0-0.1,0-0.2,0-0.3l0,0.3v-26.6L247.3,69.9z"/>
<path class="st0" d="M295,51.9c-0.4-4-4.1-7.1-8.6-7.1c-4.5,0-8.2,3.1-8.6,7.1h0v23.2h0c0,0.1,0,271.2,0,271.3
	c0,4.3,3.9,7.8,8.7,7.8c4.8,0,8.7-3.5,8.7-7.8c0-0.1,0-271.2,0-271.3h0L295,51.9L295,51.9z"/>
<path class="st0" d="M342.7,69.9c-0.4-4-4.1-7.1-8.6-7.1c-4.5,0-8.2,3.1-8.6,7.1h0v304.2h0c0,0.1,0,0.2,0,0.3c0,4.3,3.9,7.8,8.7,7.8
	c4.8,0,8.7-3.5,8.7-7.8c0-0.1,0-0.2,0-0.3h0L342.7,69.9L342.7,69.9z"/>
<path class="st0" d="M389.9,306.5c-0.4-4-4.1-7.1-8.6-7.1c-4.5,0-8.2,3.1-8.6,7.1h0v90.2h0c0,0.1,0,0.2,0,0.3c0,4.3,3.9,7.8,8.7,7.8
	c4.8,0,8.7-3.5,8.7-7.8c0-0.1,0-0.2,0-0.3h0L389.9,306.5L389.9,306.5z"/>
<path class="st0" d="M437.9,306.5c-0.4-4-4.1-7.1-8.6-7.1c-4.5,0-8.2,3.1-8.6,7.1h0v90.2h0c0,0.1,0,0.2,0,0.3c0,4.3,3.9,7.8,8.7,7.8
	c4.8,0,8.7-3.5,8.7-7.8c0-0.1,0-0.2,0-0.3h0L437.9,306.5L437.9,306.5z"/>
<path class="st0" d="M486,340.9c-0.4-4-4.1-7.1-8.6-7.1c-4.5,0-8.2,3.1-8.6,7.1h0v32.2h0c0,0.1,0,0.2,0,0.3c0,4.3,3.9,7.8,8.7,7.8
	c4.8,0,8.7-3.5,8.7-7.8c0-0.1,0-0.2,0-0.3h0L486,340.9L486,340.9z"/>
</svg>
